{
	"asset":{
		"generator":"Khronos glTF Blender I/O v4.1.63",
		"version":"2.0"
	},
	"scene":0,
	"scenes":[
		{
			"name":"Scene",
			"nodes":[
				0,
				1,
				2,
				3,
				4,
				5,
				6,
				7,
				8,
				9,
				10
			]
		}
	],
	"nodes":[
		{
			"mesh":0,
			"name":"\u7403"
		},
		{
			"mesh":1,
			"name":"\u7403.001",
			"scale":[
				3,
				3,
				3
			]
		},
		{
			"mesh":2,
			"name":"\u7403.002",
			"scale":[
				7,
				7,
				7
			]
		},
		{
			"mesh":3,
			"name":"ICO\u7403"
		},
		{
			"mesh":4,
			"name":"\u5186",
			"translation":[
				-0.85999995470047,
				0,
				0
			]
		},
		{
			"mesh":5,
			"name":"\u7acb\u65b9\u4f53",
			"scale":[
				0.28355836868286133,
				1,
				1
			],
			"translation":[
				0,
				0,
				-17.90993309020996
			]
		},
		{
			"mesh":6,
			"name":"\u5186.001",
			"scale":[
				1.6463285684585571,
				1.6463285684585571,
				1.6463285684585571
			],
			"translation":[
				-0.85999995470047,
				0,
				0
			]
		},
		{
			"mesh":7,
			"name":"\u7acb\u65b9\u4f53.001",
			"scale":[
				0.28355836868286133,
				1,
				1
			],
			"translation":[
				0,
				0,
				-17.90993309020996
			]
		},
		{
			"mesh":8,
			"name":"\u5186.002",
			"scale":[
				3,
				3,
				3
			],
			"translation":[
				-0.85999995470047,
				0,
				0
			]
		},
		{
			"mesh":9,
			"name":"\u7acb\u65b9\u4f53.002",
			"scale":[
				0.28355836868286133,
				1,
				1
			],
			"translation":[
				0,
				0,
				-17.90993309020996
			]
		},
		{
			"name":"\u30a8\u30f3\u30d7\u30c6\u30a3"
		}
	],
	"animations":[
		{
			"channels":[
				{
					"sampler":0,
					"target":{
						"node":0,
						"path":"rotation"
					}
				}
			],
			"name":"\u7403Action",
			"samplers":[
				{
					"input":36,
					"interpolation":"LINEAR",
					"output":37
				}
			]
		},
		{
			"channels":[
				{
					"sampler":0,
					"target":{
						"node":1,
						"path":"rotation"
					}
				}
			],
			"name":"\u7403.001Action",
			"samplers":[
				{
					"input":38,
					"interpolation":"LINEAR",
					"output":39
				}
			]
		},
		{
			"channels":[
				{
					"sampler":0,
					"target":{
						"node":2,
						"path":"rotation"
					}
				}
			],
			"name":"\u7403.002Action",
			"samplers":[
				{
					"input":38,
					"interpolation":"LINEAR",
					"output":40
				}
			]
		},
		{
			"channels":[
				{
					"sampler":0,
					"target":{
						"node":3,
						"path":"rotation"
					}
				}
			],
			"name":"ICO\u7403Action",
			"samplers":[
				{
					"input":41,
					"interpolation":"LINEAR",
					"output":42
				}
			]
		},
		{
			"channels":[
				{
					"sampler":0,
					"target":{
						"node":4,
						"path":"rotation"
					}
				}
			],
			"name":"\u5186Action",
			"samplers":[
				{
					"input":38,
					"interpolation":"LINEAR",
					"output":43
				}
			]
		},
		{
			"channels":[
				{
					"sampler":0,
					"target":{
						"node":6,
						"path":"rotation"
					}
				}
			],
			"name":"\u5186Action.001",
			"samplers":[
				{
					"input":38,
					"interpolation":"LINEAR",
					"output":44
				}
			]
		},
		{
			"channels":[
				{
					"sampler":0,
					"target":{
						"node":8,
						"path":"rotation"
					}
				}
			],
			"name":"\u5186.002Action",
			"samplers":[
				{
					"input":38,
					"interpolation":"LINEAR",
					"output":45
				}
			]
		},
		{
			"channels":[
				{
					"sampler":0,
					"target":{
						"node":10,
						"path":"translation"
					}
				},
				{
					"sampler":1,
					"target":{
						"node":10,
						"path":"rotation"
					}
				},
				{
					"sampler":2,
					"target":{
						"node":10,
						"path":"scale"
					}
				}
			],
			"name":"\u30a8\u30f3\u30d7\u30c6\u30a3Action",
			"samplers":[
				{
					"input":46,
					"interpolation":"STEP",
					"output":47
				},
				{
					"input":48,
					"interpolation":"LINEAR",
					"output":49
				},
				{
					"input":48,
					"interpolation":"LINEAR",
					"output":50
				}
			]
		}
	],
	"meshes":[
		{
			"name":"\u7403",
			"primitives":[
				{
					"attributes":{
						"POSITION":0,
						"NORMAL":1,
						"TEXCOORD_0":2
					},
					"indices":3
				}
			]
		},
		{
			"name":"\u7403.001",
			"primitives":[
				{
					"attributes":{
						"POSITION":4,
						"NORMAL":5,
						"TEXCOORD_0":6
					},
					"indices":7
				}
			]
		},
		{
			"name":"\u7403.002",
			"primitives":[
				{
					"attributes":{
						"POSITION":8,
						"NORMAL":9,
						"TEXCOORD_0":10
					},
					"indices":11
				}
			]
		},
		{
			"name":"ICO\u7403.001",
			"primitives":[
				{
					"attributes":{
						"POSITION":12,
						"NORMAL":13,
						"TEXCOORD_0":14
					},
					"indices":15
				}
			]
		},
		{
			"name":"\u5186",
			"primitives":[
				{
					"attributes":{
						"POSITION":16,
						"NORMAL":17,
						"TEXCOORD_0":18
					},
					"indices":19
				}
			]
		},
		{
			"name":"\u7acb\u65b9\u4f53.001",
			"primitives":[
				{
					"attributes":{
						"POSITION":20,
						"NORMAL":21,
						"TEXCOORD_0":22
					},
					"indices":23
				}
			]
		},
		{
			"name":"\u5186.001",
			"primitives":[
				{
					"attributes":{
						"POSITION":24,
						"NORMAL":25,
						"TEXCOORD_0":26
					},
					"indices":19
				}
			]
		},
		{
			"name":"\u7acb\u65b9\u4f53.002",
			"primitives":[
				{
					"attributes":{
						"POSITION":27,
						"NORMAL":28,
						"TEXCOORD_0":29
					},
					"indices":23
				}
			]
		},
		{
			"name":"\u5186.002",
			"primitives":[
				{
					"attributes":{
						"POSITION":30,
						"NORMAL":31,
						"TEXCOORD_0":32
					},
					"indices":19
				}
			]
		},
		{
			"name":"\u7acb\u65b9\u4f53.003",
			"primitives":[
				{
					"attributes":{
						"POSITION":33,
						"NORMAL":34,
						"TEXCOORD_0":35
					},
					"indices":23
				}
			]
		}
	],
	"accessors":[
		{
			"bufferView":0,
			"componentType":5126,
			"count":867,
			"max":[
				0.9807851910591125,
				1,
				0.9951844811439514
			],
			"min":[
				-0.9999996423721313,
				-1,
				-1
			],
			"type":"VEC3"
		},
		{
			"bufferView":1,
			"componentType":5126,
			"count":867,
			"type":"VEC3"
		},
		{
			"bufferView":2,
			"componentType":5126,
			"count":867,
			"type":"VEC2"
		},
		{
			"bufferView":3,
			"componentType":5123,
			"count":1251,
			"type":"SCALAR"
		},
		{
			"bufferView":4,
			"componentType":5126,
			"count":4302,
			"max":[
				0.9999998807907104,
				1,
				0.9999997615814209
			],
			"min":[
				-0.9951844215393066,
				-1,
				-1
			],
			"type":"VEC3"
		},
		{
			"bufferView":5,
			"componentType":5126,
			"count":4302,
			"type":"VEC3"
		},
		{
			"bufferView":6,
			"componentType":5126,
			"count":4302,
			"type":"VEC2"
		},
		{
			"bufferView":7,
			"componentType":5123,
			"count":6384,
			"type":"SCALAR"
		},
		{
			"bufferView":8,
			"componentType":5126,
			"count":2229,
			"max":[
				0.995184600353241,
				1,
				0.9999997615814209
			],
			"min":[
				-0.9999996423721313,
				-1,
				-1
			],
			"type":"VEC3"
		},
		{
			"bufferView":9,
			"componentType":5126,
			"count":2229,
			"type":"VEC3"
		},
		{
			"bufferView":10,
			"componentType":5126,
			"count":2229,
			"type":"VEC2"
		},
		{
			"bufferView":11,
			"componentType":5123,
			"count":3231,
			"type":"SCALAR"
		},
		{
			"bufferView":12,
			"componentType":5126,
			"count":480,
			"max":[
				0.08049829304218292,
				0.09000001102685928,
				0.07655775547027588
			],
			"min":[
				-0.08049829304218292,
				-0.09000001102685928,
				-0.07655775547027588
			],
			"type":"VEC3"
		},
		{
			"bufferView":13,
			"componentType":5126,
			"count":480,
			"type":"VEC3"
		},
		{
			"bufferView":14,
			"componentType":5126,
			"count":480,
			"type":"VEC2"
		},
		{
			"bufferView":15,
			"componentType":5123,
			"count":720,
			"type":"SCALAR"
		},
		{
			"bufferView":16,
			"componentType":5126,
			"count":128,
			"max":[
				14.029999732971191,
				0,
				14.029999732971191
			],
			"min":[
				-14.029999732971191,
				0,
				-14.029999732971191
			],
			"type":"VEC3"
		},
		{
			"bufferView":17,
			"componentType":5126,
			"count":128,
			"type":"VEC3"
		},
		{
			"bufferView":18,
			"componentType":5126,
			"count":128,
			"type":"VEC2"
		},
		{
			"bufferView":19,
			"componentType":5123,
			"count":384,
			"type":"SCALAR"
		},
		{
			"bufferView":20,
			"componentType":5126,
			"count":24,
			"max":[
				1,
				1,
				1
			],
			"min":[
				-1,
				-1,
				-1
			],
			"type":"VEC3"
		},
		{
			"bufferView":21,
			"componentType":5126,
			"count":24,
			"type":"VEC3"
		},
		{
			"bufferView":22,
			"componentType":5126,
			"count":24,
			"type":"VEC2"
		},
		{
			"bufferView":23,
			"componentType":5123,
			"count":36,
			"type":"SCALAR"
		},
		{
			"bufferView":24,
			"componentType":5126,
			"count":128,
			"max":[
				14.029999732971191,
				0,
				14.029999732971191
			],
			"min":[
				-14.029999732971191,
				0,
				-14.029999732971191
			],
			"type":"VEC3"
		},
		{
			"bufferView":25,
			"componentType":5126,
			"count":128,
			"type":"VEC3"
		},
		{
			"bufferView":26,
			"componentType":5126,
			"count":128,
			"type":"VEC2"
		},
		{
			"bufferView":27,
			"componentType":5126,
			"count":24,
			"max":[
				1,
				1,
				1
			],
			"min":[
				-1,
				-1,
				-1
			],
			"type":"VEC3"
		},
		{
			"bufferView":28,
			"componentType":5126,
			"count":24,
			"type":"VEC3"
		},
		{
			"bufferView":29,
			"componentType":5126,
			"count":24,
			"type":"VEC2"
		},
		{
			"bufferView":30,
			"componentType":5126,
			"count":128,
			"max":[
				14.029999732971191,
				0,
				14.029999732971191
			],
			"min":[
				-14.029999732971191,
				0,
				-14.029999732971191
			],
			"type":"VEC3"
		},
		{
			"bufferView":31,
			"componentType":5126,
			"count":128,
			"type":"VEC3"
		},
		{
			"bufferView":32,
			"componentType":5126,
			"count":128,
			"type":"VEC2"
		},
		{
			"bufferView":33,
			"componentType":5126,
			"count":24,
			"max":[
				1,
				1,
				1
			],
			"min":[
				-1,
				-1,
				-1
			],
			"type":"VEC3"
		},
		{
			"bufferView":34,
			"componentType":5126,
			"count":24,
			"type":"VEC3"
		},
		{
			"bufferView":35,
			"componentType":5126,
			"count":24,
			"type":"VEC2"
		},
		{
			"bufferView":36,
			"componentType":5126,
			"count":319,
			"max":[
				10.633333333333333
			],
			"min":[
				0.03333333333333333
			],
			"type":"SCALAR"
		},
		{
			"bufferView":37,
			"componentType":5126,
			"count":319,
			"type":"VEC4"
		},
		{
			"bufferView":38,
			"componentType":5126,
			"count":300,
			"max":[
				10
			],
			"min":[
				0.03333333333333333
			],
			"type":"SCALAR"
		},
		{
			"bufferView":39,
			"componentType":5126,
			"count":300,
			"type":"VEC4"
		},
		{
			"bufferView":40,
			"componentType":5126,
			"count":300,
			"type":"VEC4"
		},
		{
			"bufferView":41,
			"componentType":5126,
			"count":240,
			"max":[
				8
			],
			"min":[
				0.03333333333333333
			],
			"type":"SCALAR"
		},
		{
			"bufferView":42,
			"componentType":5126,
			"count":240,
			"type":"VEC4"
		},
		{
			"bufferView":43,
			"componentType":5126,
			"count":300,
			"type":"VEC4"
		},
		{
			"bufferView":44,
			"componentType":5126,
			"count":300,
			"type":"VEC4"
		},
		{
			"bufferView":45,
			"componentType":5126,
			"count":300,
			"type":"VEC4"
		},
		{
			"bufferView":46,
			"componentType":5126,
			"count":2,
			"max":[
				10
			],
			"min":[
				0
			],
			"type":"SCALAR"
		},
		{
			"bufferView":47,
			"componentType":5126,
			"count":2,
			"type":"VEC3"
		},
		{
			"bufferView":48,
			"componentType":5126,
			"count":301,
			"max":[
				10
			],
			"min":[
				0
			],
			"type":"SCALAR"
		},
		{
			"bufferView":49,
			"componentType":5126,
			"count":301,
			"type":"VEC4"
		},
		{
			"bufferView":50,
			"componentType":5126,
			"count":301,
			"type":"VEC3"
		}
	],
	"bufferViews":[
		{
			"buffer":0,
			"byteLength":10404,
			"byteOffset":0,
			"target":34962
		},
		{
			"buffer":0,
			"byteLength":10404,
			"byteOffset":10404,
			"target":34962
		},
		{
			"buffer":0,
			"byteLength":6936,
			"byteOffset":20808,
			"target":34962
		},
		{
			"buffer":0,
			"byteLength":2502,
			"byteOffset":27744,
			"target":34963
		},
		{
			"buffer":0,
			"byteLength":51624,
			"byteOffset":30248,
			"target":34962
		},
		{
			"buffer":0,
			"byteLength":51624,
			"byteOffset":81872,
			"target":34962
		},
		{
			"buffer":0,
			"byteLength":34416,
			"byteOffset":133496,
			"target":34962
		},
		{
			"buffer":0,
			"byteLength":12768,
			"byteOffset":167912,
			"target":34963
		},
		{
			"buffer":0,
			"byteLength":26748,
			"byteOffset":180680,
			"target":34962
		},
		{
			"buffer":0,
			"byteLength":26748,
			"byteOffset":207428,
			"target":34962
		},
		{
			"buffer":0,
			"byteLength":17832,
			"byteOffset":234176,
			"target":34962
		},
		{
			"buffer":0,
			"byteLength":6462,
			"byteOffset":252008,
			"target":34963
		},
		{
			"buffer":0,
			"byteLength":5760,
			"byteOffset":258472,
			"target":34962
		},
		{
			"buffer":0,
			"byteLength":5760,
			"byteOffset":264232,
			"target":34962
		},
		{
			"buffer":0,
			"byteLength":3840,
			"byteOffset":269992,
			"target":34962
		},
		{
			"buffer":0,
			"byteLength":1440,
			"byteOffset":273832,
			"target":34963
		},
		{
			"buffer":0,
			"byteLength":1536,
			"byteOffset":275272,
			"target":34962
		},
		{
			"buffer":0,
			"byteLength":1536,
			"byteOffset":276808,
			"target":34962
		},
		{
			"buffer":0,
			"byteLength":1024,
			"byteOffset":278344,
			"target":34962
		},
		{
			"buffer":0,
			"byteLength":768,
			"byteOffset":279368,
			"target":34963
		},
		{
			"buffer":0,
			"byteLength":288,
			"byteOffset":280136,
			"target":34962
		},
		{
			"buffer":0,
			"byteLength":288,
			"byteOffset":280424,
			"target":34962
		},
		{
			"buffer":0,
			"byteLength":192,
			"byteOffset":280712,
			"target":34962
		},
		{
			"buffer":0,
			"byteLength":72,
			"byteOffset":280904,
			"target":34963
		},
		{
			"buffer":0,
			"byteLength":1536,
			"byteOffset":280976,
			"target":34962
		},
		{
			"buffer":0,
			"byteLength":1536,
			"byteOffset":282512,
			"target":34962
		},
		{
			"buffer":0,
			"byteLength":1024,
			"byteOffset":284048,
			"target":34962
		},
		{
			"buffer":0,
			"byteLength":288,
			"byteOffset":285072,
			"target":34962
		},
		{
			"buffer":0,
			"byteLength":288,
			"byteOffset":285360,
			"target":34962
		},
		{
			"buffer":0,
			"byteLength":192,
			"byteOffset":285648,
			"target":34962
		},
		{
			"buffer":0,
			"byteLength":1536,
			"byteOffset":285840,
			"target":34962
		},
		{
			"buffer":0,
			"byteLength":1536,
			"byteOffset":287376,
			"target":34962
		},
		{
			"buffer":0,
			"byteLength":1024,
			"byteOffset":288912,
			"target":34962
		},
		{
			"buffer":0,
			"byteLength":288,
			"byteOffset":289936,
			"target":34962
		},
		{
			"buffer":0,
			"byteLength":288,
			"byteOffset":290224,
			"target":34962
		},
		{
			"buffer":0,
			"byteLength":192,
			"byteOffset":290512,
			"target":34962
		},
		{
			"buffer":0,
			"byteLength":1276,
			"byteOffset":290704
		},
		{
			"buffer":0,
			"byteLength":5104,
			"byteOffset":291980
		},
		{
			"buffer":0,
			"byteLength":1200,
			"byteOffset":297084
		},
		{
			"buffer":0,
			"byteLength":4800,
			"byteOffset":298284
		},
		{
			"buffer":0,
			"byteLength":4800,
			"byteOffset":303084
		},
		{
			"buffer":0,
			"byteLength":960,
			"byteOffset":307884
		},
		{
			"buffer":0,
			"byteLength":3840,
			"byteOffset":308844
		},
		{
			"buffer":0,
			"byteLength":4800,
			"byteOffset":312684
		},
		{
			"buffer":0,
			"byteLength":4800,
			"byteOffset":317484
		},
		{
			"buffer":0,
			"byteLength":4800,
			"byteOffset":322284
		},
		{
			"buffer":0,
			"byteLength":8,
			"byteOffset":327084
		},
		{
			"buffer":0,
			"byteLength":24,
			"byteOffset":327092
		},
		{
			"buffer":0,
			"byteLength":1204,
			"byteOffset":327116
		},
		{
			"buffer":0,
			"byteLength":4816,
			"byteOffset":328320
		},
		{
			"buffer":0,
			"byteLength":3612,
			"byteOffset":333136
		}
	],
	"buffers":[
		{
			"byteLength":336748,
			"uri":"ark_ball.bin"
		}
	]
}
