{
	"asset":{
		"generator":"Khronos glTF Blender I/O v4.1.63",
		"version":"2.0"
	},
	"scene":0,
	"scenes":[
		{
			"name":"Scene",
			"nodes":[
				0
			]
		}
	],
	"nodes":[
		{
			"mesh":0,
			"name":"\u7acb\u65b9\u4f53",
			"translation":[
				0,
				9.626016616821289,
				0
			]
		}
	],
	"materials":[
		{
			"doubleSided":true,
			"emissiveFactor":[
				0,
				0.8000001907348633,
				0.026430124385385056
			],
			"name":"\u30de\u30c6\u30ea\u30a2\u30eb",
			"pbrMetallicRoughness":{
				"baseColorFactor":[
					0,
					0,
					0,
					1
				]
			}
		}
	],
	"meshes":[
		{
			"name":"\u7acb\u65b9\u4f53",
			"primitives":[
				{
					"attributes":{
						"POSITION":0,
						"NORMAL":1,
						"TEXCOORD_0":2
					},
					"indices":3,
					"material":0
				}
			]
		}
	],
	"accessors":[
		{
			"bufferView":0,
			"componentType":5126,
			"count":135,
			"max":[
				5.490047454833984,
				2.130742073059082,
				3.854574680328369
			],
			"min":[
				-5.490047454833984,
				-1.5037779808044434,
				-7.466358184814453
			],
			"type":"VEC3"
		},
		{
			"bufferView":1,
			"componentType":5126,
			"count":135,
			"type":"VEC3"
		},
		{
			"bufferView":2,
			"componentType":5126,
			"count":135,
			"type":"VEC2"
		},
		{
			"bufferView":3,
			"componentType":5123,
			"count":246,
			"type":"SCALAR"
		}
	],
	"bufferViews":[
		{
			"buffer":0,
			"byteLength":1620,
			"byteOffset":0,
			"target":34962
		},
		{
			"buffer":0,
			"byteLength":1620,
			"byteOffset":1620,
			"target":34962
		},
		{
			"buffer":0,
			"byteLength":1080,
			"byteOffset":3240,
			"target":34962
		},
		{
			"buffer":0,
			"byteLength":492,
			"byteOffset":4320,
			"target":34963
		}
	],
	"buffers":[
		{
			"byteLength":4812,
			"uri":"fighter.bin"
		}
	]
}
