{
	"asset":{
		"generator":"Khronos glTF Blender I/O v4.1.63",
		"version":"2.0"
	},
	"scene":0,
	"scenes":[
		{
			"name":"Scene",
			"nodes":[
				0
			]
		}
	],
	"nodes":[
		{
			"mesh":0,
			"name":"\u30dc\u30c7\u30a3",
			"rotation":[
				-0.0007961230003274977,
				0.707106351852417,
				0.707106351852417,
				0.0007961230003274977
			],
			"scale":[
				2.486246347427368,
				2.486246347427368,
				2.486246347427368
			],
			"translation":[
				1.500638484954834,
				30.735620498657227,
				-30.862262725830078
			]
		}
	],
	"materials":[
		{
			"alphaMode":"BLEND",
			"doubleSided":true,
			"name":"\u30de\u30c6\u30ea\u30a2\u30eb.012",
			"pbrMetallicRoughness":{
				"baseColorFactor":[
					0.07108531147241592,
					0.07108531147241592,
					0.07108531147241592,
					1
				],
				"roughnessFactor":0.14054545760154724
			}
		}
	],
	"meshes":[
		{
			"name":"\u5186\u9310.002",
			"primitives":[
				{
					"attributes":{
						"POSITION":0,
						"NORMAL":1,
						"TEXCOORD_0":2
					},
					"indices":3,
					"material":0
				}
			]
		}
	],
	"accessors":[
		{
			"bufferView":0,
			"componentType":5126,
			"count":3226,
			"max":[
				0.05644707754254341,
				7.127851486206055,
				1.6769856214523315
			],
			"min":[
				-2.476903200149536,
				-0.09159275144338608,
				-0.9081054329872131
			],
			"type":"VEC3"
		},
		{
			"bufferView":1,
			"componentType":5126,
			"count":3226,
			"type":"VEC3"
		},
		{
			"bufferView":2,
			"componentType":5126,
			"count":3226,
			"type":"VEC2"
		},
		{
			"bufferView":3,
			"componentType":5123,
			"count":6699,
			"type":"SCALAR"
		}
	],
	"bufferViews":[
		{
			"buffer":0,
			"byteLength":38712,
			"byteOffset":0,
			"target":34962
		},
		{
			"buffer":0,
			"byteLength":38712,
			"byteOffset":38712,
			"target":34962
		},
		{
			"buffer":0,
			"byteLength":25808,
			"byteOffset":77424,
			"target":34962
		},
		{
			"buffer":0,
			"byteLength":13398,
			"byteOffset":103232,
			"target":34963
		}
	],
	"buffers":[
		{
			"byteLength":116632,
			"uri":"heri.bin"
		}
	]
}
