{
	"asset":{
		"generator":"Khronos glTF Blender I/O v4.1.63",
		"version":"2.0"
	},
	"scene":0,
	"scenes":[
		{
			"name":"Scene",
			"nodes":[
				0
			]
		}
	],
	"nodes":[
		{
			"mesh":0,
			"name":"\u81ea\u6a5f"
		}
	],
	"materials":[
		{
			"doubleSided":true,
			"name":"\u30de\u30c6\u30ea\u30a2\u30eb.003",
			"pbrMetallicRoughness":{
				"baseColorFactor":[
					0.8001892566680908,
					0.0017936390358954668,
					0,
					1
				],
				"metallicFactor":0,
				"roughnessFactor":0.5
			}
		},
		{
			"doubleSided":true,
			"name":"\u30de\u30c6\u30ea\u30a2\u30eb.002",
			"pbrMetallicRoughness":{
				"baseColorFactor":[
					0,
					0.23051023483276367,
					0.8001965880393982,
					1
				],
				"metallicFactor":0,
				"roughnessFactor":0.5
			}
		},
		{
			"doubleSided":true,
			"name":"\u30de\u30c6\u30ea\u30a2\u30eb.001",
			"pbrMetallicRoughness":{
				"baseColorFactor":[
					0,
					0.8001194596290588,
					0.744926929473877,
					1
				],
				"metallicFactor":0,
				"roughnessFactor":0.5
			}
		}
	],
	"meshes":[
		{
			"name":"\u7403.002",
			"primitives":[
				{
					"attributes":{
						"POSITION":0,
						"NORMAL":1,
						"TEXCOORD_0":2
					},
					"indices":3,
					"material":0
				},
				{
					"attributes":{
						"POSITION":4,
						"NORMAL":5,
						"TEXCOORD_0":6
					},
					"indices":7,
					"material":1
				},
				{
					"attributes":{
						"POSITION":8,
						"NORMAL":9,
						"TEXCOORD_0":10
					},
					"indices":11,
					"material":2
				}
			]
		}
	],
	"accessors":[
		{
			"bufferView":0,
			"componentType":5126,
			"count":176,
			"max":[
				0.9999999403953552,
				1,
				0.9999998807907104
			],
			"min":[
				-0.9999998807907104,
				-1,
				-0.9999998807907104
			],
			"type":"VEC3"
		},
		{
			"bufferView":1,
			"componentType":5126,
			"count":176,
			"type":"VEC3"
		},
		{
			"bufferView":2,
			"componentType":5126,
			"count":176,
			"type":"VEC2"
		},
		{
			"bufferView":3,
			"componentType":5123,
			"count":240,
			"type":"SCALAR"
		},
		{
			"bufferView":4,
			"componentType":5126,
			"count":824,
			"max":[
				1.172752857208252,
				1.172752857208252,
				3.858487367630005
			],
			"min":[
				-1.172752857208252,
				-1.172752857208252,
				-1.1146305799484253
			],
			"type":"VEC3"
		},
		{
			"bufferView":5,
			"componentType":5126,
			"count":824,
			"type":"VEC3"
		},
		{
			"bufferView":6,
			"componentType":5126,
			"count":824,
			"type":"VEC2"
		},
		{
			"bufferView":7,
			"componentType":5123,
			"count":1728,
			"type":"SCALAR"
		},
		{
			"bufferView":8,
			"componentType":5126,
			"count":824,
			"max":[
				0.876178503036499,
				0.8761788010597229,
				2.8167715072631836
			],
			"min":[
				-0.8761787414550781,
				-0.8761785626411438,
				-0.756508469581604
			],
			"type":"VEC3"
		},
		{
			"bufferView":9,
			"componentType":5126,
			"count":824,
			"type":"VEC3"
		},
		{
			"bufferView":10,
			"componentType":5126,
			"count":824,
			"type":"VEC2"
		},
		{
			"bufferView":11,
			"componentType":5123,
			"count":1728,
			"type":"SCALAR"
		}
	],
	"bufferViews":[
		{
			"buffer":0,
			"byteLength":2112,
			"byteOffset":0,
			"target":34962
		},
		{
			"buffer":0,
			"byteLength":2112,
			"byteOffset":2112,
			"target":34962
		},
		{
			"buffer":0,
			"byteLength":1408,
			"byteOffset":4224,
			"target":34962
		},
		{
			"buffer":0,
			"byteLength":480,
			"byteOffset":5632,
			"target":34963
		},
		{
			"buffer":0,
			"byteLength":9888,
			"byteOffset":6112,
			"target":34962
		},
		{
			"buffer":0,
			"byteLength":9888,
			"byteOffset":16000,
			"target":34962
		},
		{
			"buffer":0,
			"byteLength":6592,
			"byteOffset":25888,
			"target":34962
		},
		{
			"buffer":0,
			"byteLength":3456,
			"byteOffset":32480,
			"target":34963
		},
		{
			"buffer":0,
			"byteLength":9888,
			"byteOffset":35936,
			"target":34962
		},
		{
			"buffer":0,
			"byteLength":9888,
			"byteOffset":45824,
			"target":34962
		},
		{
			"buffer":0,
			"byteLength":6592,
			"byteOffset":55712,
			"target":34962
		},
		{
			"buffer":0,
			"byteLength":3456,
			"byteOffset":62304,
			"target":34963
		}
	],
	"buffers":[
		{
			"byteLength":65760,
			"uri":"Player.bin"
		}
	]
}
